<svg aria-label="Threads" class="x1ypdohk x13dflua x11xpdln xk4oym4 xus2keu" fill="var(--icon-primary)" height="100%" role="img" viewBox="0 0 976.98 1082" width="100%" xmlns="http://www.w3.org/2000/svg"><path d="M770.347,500.347c-1.355-156.85-86.386-251.367-230.025-251.367-95.872,0-176.499,43.362-218.846,112.472l92.823,64.705c24.053-37.942,57.252-69.448,118.231-69.448,68.77,0,104.341,38.281,114.504,109.423-33.2-5.081-66.399-7.791-100.615-7.791-185.646,0-273.049,84.015-273.049,195.131,0,113.149,87.403,179.548,216.136,179.548,141.267,0,225.621-95.194,260.176-213.086,35.91,16.261,60.64,54.203,60.64,111.116,0,152.447-175.822,235.446-324.881,235.446-219.862,0-363.501-144.316-363.501-379.084,0-287.616,190.05-471.907,445.483-471.907,171.418,0,256.11,75.207,313.701,176.16l94.856-66.399C913.308,94.501,773.396,1,563.358,1,228.653,1,.999,238.478.999,583.008c0,315.057,222.911,497.992,488.507,497.992,219.523,0,441.418-128.055,441.418-347.24,0-114.504-65.721-190.389-160.577-233.413ZM485.441,718.854c-48.444,0-91.129-23.036-91.129-65.383,0-66.738,81.983-87.064,162.271-87.064,30.489,0,60.301,2.032,86.725,7.792-18.971,86.725-75.207,144.655-157.867,144.655Z" fill="white"/></svg>